<?xml version="1.0" standalone="no"?>
<!DOCTYPE svg PUBLIC "-//W3C//DTD SVG 20010904//EN"
 "http://www.w3.org/TR/2001/REC-SVG-20010904/DTD/svg10.dtd">
<svg version="1.0" xmlns="http://www.w3.org/2000/svg"
 width="1280.000000pt" height="640.000000pt" viewBox="0 0 1280.000000 640.000000"
 preserveAspectRatio="xMidYMid meet">
<metadata>
Created by potrace 1.15, written by Peter Selinger 2001-2017
</metadata>
<g transform="translate(0.000000,640.000000) scale(0.100000,-0.100000)"
fill="#000000" stroke="none">
<path d="M10565 4943 c-325 -12 -681 -65 -1445 -213 -783 -152 -973 -175
-1430 -175 -431 0 -499 9 -1164 151 -381 81 -543 110 -831 149 -861 114 -1252
114 -1890 -1 -77 -14 -331 -65 -565 -114 -234 -49 -477 -98 -541 -110 l-116
-22 -7 -161 c-7 -179 4 -298 34 -380 13 -35 47 -84 102 -146 219 -248 238
-281 302 -526 156 -595 405 -1233 550 -1407 184 -221 526 -395 941 -477 212
-42 350 -55 585 -54 461 0 770 64 1052 216 351 189 671 556 925 1062 83 164
101 213 163 436 63 225 83 283 131 386 84 178 144 204 422 184 158 -11 196
-26 261 -105 75 -93 115 -176 187 -401 152 -470 288 -757 479 -1010 187 -247
363 -392 635 -525 324 -158 665 -233 1060 -232 577 1 1063 180 1400 517 240
240 352 474 500 1045 84 324 140 518 172 598 59 149 132 246 245 323 31 21 60
49 64 61 4 13 8 129 9 258 2 255 -3 283 -52 315 -14 10 -101 32 -193 51 -91
18 -260 58 -373 89 -367 98 -352 95 -802 160 -302 43 -558 67 -673 63 -31 -1
-93 -3 -137 -5z"/>
<path d="M8 3383 c7 -3 16 -2 19 1 4 3 -2 6 -13 5 -11 0 -14 -3 -6 -6z"/>
</g>
</svg>
